<svg xmlns="http://www.w3.org/2000/svg" width="320" height="320" shape-rendering="crispEdges">
  <rect width="100%" height="100%" fill="none"/>
  <path fill="#eab118" d="M70 40h10v10H70zM150 40h20v10h-20zM240 40h10v10h-10zM70 50h10v10H70zM150 50h20v10h-20zM240 50h10v10h-10zM70 60h20v10H70zM140 60h40v10h-40zM230 60h20v10h-20z"/>
  <path fill="#257ced" d="M60 70h20v10H60z"/>
  <path fill="#db8323" d="M80 70h10v10H80z"/>
  <path fill="#eab118" d="M90 70h10v10H90zM130 70h10v10h-10z"/>
  <path fill="#34ac80" d="M140 70h40v10h-40z"/>
  <path fill="#eab118" d="M180 70h10v10h-10zM220 70h10v10h-10z"/>
  <path fill="#db8323" d="M230 70h10v10h-10z"/>
  <path fill="#ff1a0b" d="M240 70h20v10h-20z"/>
  <path fill="#257ced" d="M60 80h10v10H60z"/>
  <path fill="#00499c" d="M70 80h10v10H70z"/>
  <path fill="#db8323" d="M80 80h10v10H80z"/>
  <path fill="#eab118" d="M90 80h20v10H90zM120 80h20v10h-20z"/>
  <path fill="#34ac80" d="M140 80h10v10h-10z"/>
  <path fill="#42ffb0" d="M150 80h20v10h-20z"/>
  <path fill="#068940" d="M170 80h10v10h-10z"/>
  <path fill="#eab118" d="M180 80h20v10h-20zM210 80h20v10h-20z"/>
  <path fill="#db8323" d="M230 80h10v10h-10z"/>
  <path fill="#d22209" d="M240 80h10v10h-10z"/>
  <path fill="#ff1a0b" d="M250 80h10v10h-10z"/>
  <path fill="#00499c" d="M60 90h20v10H60z"/>
  <path fill="#db8323" d="M80 90h10v10H80z"/>
  <path fill="#eab118" d="M90 90h50v10H90z"/>
  <path fill="#34ac80" d="M140 90h20v10h-20z"/>
  <path fill="#068940" d="M160 90h20v10h-20z"/>
  <path fill="#eab118" d="M180 90h50v10h-50z"/>
  <path fill="#db8323" d="M230 90h10v10h-10z"/>
  <path fill="#d22209" d="M240 90h20v10h-20z"/>
  <path fill="#eab118" d="M70 100h180v10H70zM70 110h180v10H70zM70 120h180v10H70zM70 130h180v10H70zM70 140h180v10H70zM70 150h180v10H70zM70 160h180v10H70zM70 170h180v10H70z"/>
  <path fill="#6e3206" d="M80 180h10v10H80z"/>
  <path fill="#db8323" d="M90 180h50v10H90z"/>
  <path fill="#6e3206" d="M140 180h40v10h-40z"/>
  <path fill="#db8323" d="M180 180h50v10h-50z"/>
  <path fill="#6e3206" d="M230 180h10v10h-10z"/>
  <path fill="#eab118" d="M70 190h180v10H70zM70 200h180v10H70z"/>
</svg>