<svg xmlns="http://www.w3.org/2000/svg" shape-rendering="crispEdges" viewBox="0 0 320 320">
  <rect width="100%" height="100%" fill="none"/>
  <path fill="#2b83f6" d="M130 30h60v10h-60zM110 40h100v10H110zM90 50h30v10H90z"/>
  <path fill="#4bea69" d="M120 50h10v10h-10z"/>
  <path fill="#2b83f6" d="M130 50h50v10h-50z"/>
  <path fill="#4bea69" d="M180 50h10v10h-10z"/>
  <path fill="#2b83f6" d="M190 50h20v10h-20z"/>
  <path fill="#4bea69" d="M210 50h20v10h-20z"/>
  <path fill="#2b83f6" d="M80 60h20v10H80z"/>
  <path fill="#4bea69" d="M100 60h30v10h-30z"/>
  <path fill="#2b83f6" d="M130 60h50v10h-50z"/>
  <path fill="#4bea69" d="M180 60h60v10h-60z"/>
  <path fill="#2b83f6" d="M80 70h20v10H80z"/>
  <path fill="#4bea69" d="M100 70h20v10h-20z"/>
  <path fill="#2b83f6" d="M120 70h50v10h-50z"/>
  <path fill="#4bea69" d="M170 70h70v10h-70zM70 80h10v10H70z"/>
  <path fill="#2b83f6" d="M80 80h20v10H80z"/>
  <path fill="#4bea69" d="M100 80h30v10h-30z"/>
  <path fill="#2b83f6" d="M130 80h30v10h-30z"/>
  <path fill="#4bea69" d="M160 80h90v10h-90zM70 90h20v10H70z"/>
  <path fill="#2b83f6" d="M90 90h20v10H90z"/>
  <path fill="#4bea69" d="M110 90h10v10h-10z"/>
  <path fill="#2b83f6" d="M120 90h40v10h-40z"/>
  <path fill="#4bea69" d="M160 90h90v10h-90zM60 100h30v10H60z"/>
  <path fill="#2b83f6" d="M90 100h80v10H90z"/>
  <path fill="#4bea69" d="M170 100h90v10h-90zM60 110h30v10H60z"/>
  <path fill="#2b83f6" d="M90 110h130v10H90z"/>
  <path fill="#4bea69" d="M220 110h40v10h-40zM60 120h40v10H60z"/>
  <path fill="#2b83f6" d="M100 120h70v10h-70z"/>
  <path fill="#4bea69" d="M170 120h90v10h-90zM60 130h50v10H60z"/>
  <path fill="#2b83f6" d="M110 130h50v10h-50z"/>
  <path fill="#4bea69" d="M160 130h90v10h-90z"/>
  <path fill="#2b83f6" d="M250 130h10v10h-10z"/>
  <path fill="#4bea69" d="M60 140h60v10H60z"/>
  <path fill="#2b83f6" d="M120 140h40v10h-40z"/>
  <path fill="#4bea69" d="M160 140h80v10h-80z"/>
  <path fill="#2b83f6" d="M240 140h20v10h-20z"/>
  <path fill="#4bea69" d="M60 150h60v10H60z"/>
  <path fill="#2b83f6" d="M120 150h40v10h-40z"/>
  <path fill="#4bea69" d="M160 150h70v10h-70z"/>
  <path fill="#2b83f6" d="M230 150h30v10h-30z"/>
  <path fill="#4bea69" d="M70 160h30v10H70z"/>
  <path fill="#2b83f6" d="M100 160h60v10h-60z"/>
  <path fill="#4bea69" d="M160 160h70v10h-70z"/>
  <path fill="#2b83f6" d="M230 160h20v10h-20z"/>
  <path fill="#4bea69" d="M70 170h20v10H70z"/>
  <path fill="#2b83f6" d="M90 170h80v10H90z"/>
  <path fill="#4bea69" d="M170 170h40v10h-40z"/>
  <path fill="#2b83f6" d="M210 170h40v10h-40z"/>
  <path fill="#4bea69" d="M80 180h10v10H80z"/>
  <path fill="#2b83f6" d="M90 180h90v10H90z"/>
  <path fill="#4bea69" d="M180 180h40v10h-40z"/>
  <path fill="#2b83f6" d="M220 180h20v10h-20z"/>
  <path fill="#4bea69" d="M80 190h10v10H80z"/>
  <path fill="#2b83f6" d="M90 190h40v10H90z"/>
  <path fill="#4bea69" d="M130 190h80v10h-80z"/>
  <path fill="#2b83f6" d="M210 190h30v10h-30zM90 200h140v10H90zM110 210h100v10H110zM130 220h60v10h-60z"/>
</svg>